<svg width="14" height="21" viewBox="0 0 14 21" fill="none" xmlns="http://www.w3.org/2000/svg">
<path d="M7.268 21C6.02 21 4.902 20.714 3.914 20.142C2.926 19.5527 2.13733 18.764 1.548 17.776C0.976 16.788 0.69 15.67 0.69 14.422C0.69 14.1793 0.759333 13.9887 0.898 13.85C1.054 13.694 1.24467 13.616 1.47 13.616C1.69533 13.616 1.886 13.694 2.042 13.85C2.198 13.9887 2.276 14.1793 2.276 14.422C2.276 15.358 2.49267 16.2073 2.926 16.97C3.37667 17.7153 3.97467 18.3133 4.72 18.764C5.48267 19.1973 6.332 19.414 7.268 19.414C8.22133 19.414 9.07067 19.1973 9.816 18.764C10.5613 18.3133 11.1507 17.7153 11.584 16.97C12.0347 16.2073 12.26 15.358 12.26 14.422C12.26 13.4687 12.0347 12.6193 11.584 11.874C11.1507 11.1113 10.5613 10.5133 9.816 10.08C9.07067 9.62933 8.22133 9.404 7.268 9.404H2.536C2.31067 9.404 2.12 9.33467 1.964 9.196C1.82533 9.04 1.756 8.84933 1.756 8.624V1.448C1.756 1.22267 1.82533 1.04067 1.964 0.901998C2.12 0.745998 2.31067 0.667998 2.536 0.667998H12C12.2253 0.667998 12.416 0.745998 12.572 0.901998C12.728 1.04067 12.806 1.22267 12.806 1.448C12.806 1.67333 12.728 1.864 12.572 2.02C12.416 2.176 12.2253 2.254 12 2.254H3.316V7.844H7.268C8.516 7.844 9.634 8.13 10.622 8.702C11.61 9.274 12.39 10.0627 12.962 11.068C13.5513 12.056 13.846 13.174 13.846 14.422C13.846 15.67 13.5513 16.788 12.962 17.776C12.39 18.764 11.61 19.5527 10.622 20.142C9.634 20.714 8.516 21 7.268 21Z" fill="#020202"/>
</svg>
