<?xml version="1.0" encoding="iso-8859-1"?>
<!-- Uploaded to: SVG Repo, www.svgrepo.com, Generator: SVG Repo Mixer Tools -->
<svg height="800px" width="800px" version="1.1" id="Layer_1" xmlns="http://www.w3.org/2000/svg" xmlns:xlink="http://www.w3.org/1999/xlink" 
	 viewBox="0 0 512 512" xml:space="preserve">
<g>
	<path style="fill:#507C5C;" d="M424.051,472.165c-8.286,0-15.005-6.718-15.005-15.005V185.57H102.956v271.59
		c0,8.288-6.719,15.005-15.005,15.005s-15.005-6.718-15.005-15.005V170.564c0-8.288,6.719-15.005,15.005-15.005h336.098
		c8.286,0,15.005,6.718,15.005,15.005V457.16C439.056,465.447,432.337,472.165,424.051,472.165z"/>
	<path style="fill:#507C5C;" d="M466.075,185.57H45.926c-8.286,0-15.005-6.718-15.005-15.005s6.719-15.005,15.005-15.005h420.147
		c8.286,0,15.005,6.718,15.005,15.005S474.361,185.57,466.075,185.57z"/>
</g>
<circle style="fill:#CFF09E;" cx="87.948" cy="468.171" r="28.827"/>
<path style="fill:#507C5C;" d="M87.951,512c-24.169,0-43.832-19.663-43.832-43.832c0-24.169,19.663-43.831,43.832-43.831
	c24.168,0,43.831,19.663,43.831,43.831S112.12,512,87.951,512z M87.951,454.347c-7.621,0-13.822,6.2-13.822,13.82
	c0,7.621,6.2,13.822,13.822,13.822c7.62,0,13.82-6.2,13.82-13.822C101.771,460.546,95.571,454.347,87.951,454.347z"/>
<circle style="fill:#CFF09E;" cx="424.055" cy="468.171" r="28.827"/>
<path style="fill:#507C5C;" d="M424.051,512c-24.168,0-43.831-19.663-43.831-43.832c0-24.169,19.663-43.831,43.831-43.831
	c24.169,0,43.832,19.663,43.832,43.831S448.22,512,424.051,512z M424.051,454.347c-7.62,0-13.82,6.2-13.82,13.82
	c0,7.621,6.2,13.822,13.82,13.822c7.621,0,13.822-6.2,13.822-13.822C437.872,460.546,431.672,454.347,424.051,454.347z"/>
<path style="fill:#CFF09E;" d="M365.198,167.56H146.804v-18.881c0-60.308,48.889-109.196,109.196-109.196l0,0
	c60.308,0,109.196,48.889,109.196,109.196v18.881H365.198z"/>
<g>
	<path style="fill:#507C5C;" d="M365.198,182.566H146.804c-8.286,0-15.005-6.718-15.005-15.005v-18.881
		c0-68.485,55.717-124.202,124.202-124.202s124.202,55.717,124.202,124.202v18.881C380.203,175.848,373.484,182.566,365.198,182.566
		z M161.809,152.555h188.383v-3.876c0-51.937-42.254-94.191-94.191-94.191s-94.191,42.254-94.191,94.191v3.876H161.809z"/>
	<path style="fill:#507C5C;" d="M256,54.486c-8.286,0-15.005-6.718-15.005-15.005V15.005C240.995,6.718,247.714,0,256,0
		c8.286,0,15.005,6.718,15.005,15.005v24.475C271.005,47.768,264.288,54.486,256,54.486z"/>
	<path style="fill:#507C5C;" d="M159.602,356.161c-4.233,0-8.315-1.793-11.185-5.004c-7.087-7.927-23.569-30.872-23.569-72.631
		c0-41.768,16.483-64.707,23.572-72.629c3.399-3.799,8.49-5.614,13.53-4.817c45.004,7.123,70.872,21.455,85.447,33.894h17.204
		c14.573-12.44,40.44-26.771,85.443-33.9c8.164-1.301,15.871,4.286,17.168,12.474c1.296,8.185-4.287,15.871-12.474,17.168
		c-45.884,7.267-66.338,22.304-74.445,30.62c-4.117,4.221-10.304,5.627-15.81,3.649h-16.965c-5.506,1.979-11.695,0.573-15.813-3.648
		c-7.566-7.759-25.877-21.369-65.568-29.057c-4.938,8.059-11.28,22.948-11.28,46.245c0,23.288,6.34,38.18,11.278,46.245
		c21.687-4.226,40.014-10.865,53.379-19.381c6.99-4.452,16.266-2.396,20.718,4.593c4.454,6.99,2.398,16.264-4.593,20.718
		c-18.865,12.018-43.658,20.521-73.69,25.277C161.167,356.099,160.382,356.161,159.602,356.161z"/>
	<path style="fill:#507C5C;" d="M352.4,356.161c-0.78,0-1.565-0.062-2.347-0.185c-28.395-4.496-52.161-12.366-70.638-23.392
		c-7.116-4.248-9.441-13.458-5.195-20.576c4.245-7.116,13.458-9.441,20.576-5.196c13.31,7.944,30.457,13.972,51.065,17.963
		c4.94-8.068,11.284-22.967,11.284-46.25c0-8.288,6.719-15.005,15.005-15.005c8.286,0,15.005,6.718,15.005,15.005
		c0,41.738-16.479,64.695-23.565,72.626C360.719,354.365,356.634,356.161,352.4,356.161z"/>
	<path style="fill:#507C5C;" d="M335.184,395.643H87.951c-8.286,0-15.005-6.718-15.005-15.005s6.719-15.005,15.005-15.005h247.233
		c8.286,0,15.005,6.718,15.005,15.005C350.189,388.925,343.47,395.643,335.184,395.643z"/>
</g>
<circle style="fill:#CFF09E;" cx="255.994" cy="286.004" r="37.514"/>
<path style="fill:#507C5C;" d="M256.018,338.529c-0.41,0-0.818-0.005-1.229-0.014c-14.026-0.324-27.083-6.089-36.771-16.236
	c-9.689-10.145-14.846-23.457-14.522-37.481c0.662-28.701,24.908-51.961,53.717-51.295c14.026,0.324,27.083,6.089,36.771,16.236
	c9.689,10.145,14.846,23.457,14.522,37.481C307.853,315.514,284.308,338.529,256.018,338.529z M255.984,263.502
	c-12.118,0-22.205,9.865-22.484,21.989c-0.138,6.011,2.072,11.716,6.223,16.063c4.154,4.349,9.749,6.819,15.759,6.958l0.537,0.006
	c12.118,0,22.205-9.865,22.484-21.989c0.138-6.011-2.072-11.716-6.223-16.063c-4.154-4.349-9.749-6.818-15.759-6.958
	L255.984,263.502z"/>
</svg>